<svg id="svgRoot" xmlns="http://www.w3.org/2000/svg" viewBox="0 0 226.32 276.3"><title>淡化色 - 反转 - 加框3</title><path d="M111.2,130.3c2.9.4,6.4,0,9.5.1.8.1.5,1.7,1.3,1.8.1-1,.5-3.9-.3-4.5-.1,2.8-4.8,2-7.4,1.7,2.6-2,5.2-4.1,7.9-5.9v-3.4h-.5a2.14,2.14,0,0,1-.8,1.7c-2.4.7-5.8.4-8.4,0-.4-.3,0-1.6-.8-1.6-.1,1-.5,3.9.3,4.6.4-.4.3-1.4.7-1.7,1.8-.4,5.5,0,7,.1C117.2,125.8,113.5,127.2,111.2,130.3Z" transform="translate(-57.08 -25.3)" fill="none"/><path d="M201.3,87.3c3.3.3,2.8-4.2,5.1-4.9a3,3,0,0,1,3.4,1.1c-.5,1.4-2,.7-2,2.2,0,2.7,5.6,2.4,8,2.3,1.7-1.1,3.2-2.2,3.6-4.6,1.5,0,3.1-1.7,4.2-.6-.4,1.4-2.3,3.4-.7,5.2a9.64,9.64,0,0,0,6.4-1.4c-1-3.8.9-9.7-1.1-12.8-1.4-2.1-4.6-3.3-7.2-3.2-2,.2-4.4,2-6.6.3-.1-1.6,1.3-2.4,1.4-3.8.5-3.2-1-7.1-3.3-8.4a21.57,21.57,0,0,1-5.1.6c0,1.2-2,1.2-2.7,2.2,0,1.1.5,1.5.4,2.5-2.1,3.6-6.5,5.2-5.4,12.2,2.2,1.3,2.2,5.5.4,7.3-.5.4-1.5.1-1.9.7v.1A3,3,0,0,0,201.3,87.3Zm25.2-12.8c.6.4,1.6.5,1.6,1.5h-1.7A2.52,2.52,0,0,0,226.5,74.5Zm1.6,4.6c-.8.1-.6-1-.7-1.7C228.2,77.5,228.3,78.3,228.1,79.1Zm-1.3,5.3c-.7-1,.9-1.8.4-2.8-1.5-.2-2.1-1.7-2.4-3.2-1.2.4-1.6-.1-2.3-.7.8-1.2,1.6.6,2.5-.3C224.9,80.3,230.7,82,226.8,84.4Zm-1.9-11a.91.91,0,0,1-.7.3,1.94,1.94,0,0,1-2.4-1.4C223.3,72.3,224.3,72,224.9,73.4ZM219.5,72h.7v1c-.4,0-.4.3-.8.3C219.1,72.6,219.2,72.6,219.5,72Zm-3.3,1.9c.7,0,.7,1,.3,1.1C215.7,75.3,216.1,74,216.2,73.9Zm-7.4,2.4c-1.7.1-2.2-.9-2.2-2.4.8-.1,2.1.3,2.2-.4.5.5-.4,1.1-.4,1.8.7.5,1.3-.7,1.8-.3.2.8-.9.2-.8.8.1,2.8,3.4,2.4,5.4,3.2a3.28,3.28,0,0,1-.3,2c-1.4-.5-2.2-2.7-3.8-2.2A4.7,4.7,0,0,1,208.8,76.3Zm-.5-4.7a1.85,1.85,0,0,1,.7-.2,1.09,1.09,0,0,1,.9,1.1c-.4.1-.5.5-1.1.5C208.8,72.4,208.2,72.3,208.3,71.6Zm6.5,14.1c-1.2.2,0-2.2-1.2-2.2-.5.1-.1,1.4-.5,1.8a3.65,3.65,0,0,1-2.9,0,4.63,4.63,0,0,0,2-4.6c1,0,.1,1.4.7,1.7,1.1-.7,1.6.9,2.7.1C214.7,83.5,214.7,83.9,214.8,85.7Zm.9-9.3a2.57,2.57,0,0,1-1.5-.1v-.6C214.8,75.1,216,75.4,215.7,76.4Zm-1.4-14.9a1.73,1.73,0,0,1,.1,1c-.6,0-.7-.6-.8-1Zm-3.5-1c.6.4.3,1.8.9,2.4-.1,0-.2,0-.2-.1A1.79,1.79,0,0,1,210.8,60.5Zm.5,4.4a8.3,8.3,0,0,1-3.3-3.4C209.5,62.2,211,62.9,211.3,64.9Zm-1.5,1.5c-1-.3-1.8.3-2.4,0C207.4,65.3,209.9,65.3,209.8,66.4Zm-4.3-.6v.1a1.22,1.22,0,0,1-1.2,1.4C204.2,66.3,204.9,65.4,205.5,65.8Zm-1.3,3c1.1-1.5,4.1-1.2,5.8-.3.9-.3,1.1-1.1,1.6-1.8a2.3,2.3,0,0,1,.9,1.4c-1.5-1.1-1.1,1.3-2.7,1,.9,1.6,5.7,2,4.2,4.3a20.53,20.53,0,0,0-2-2.3c-1.9.9-2.1-1.5-4.1-.7-.7.3-.2,1.6-1.2,1.6a3.58,3.58,0,0,1,0-2.5.75.75,0,0,0-.5-.7c-1,.2-.7,1.6-1.4,2.2C203.9,71,204.3,69.6,204.2,68.8Zm-.9,1.3c.3.3.2,1.7-.6,1.4C202.6,70.8,203,70.5,203.3,70.1Z" transform="translate(-57.08 -25.3)" fill="none"/><path d="M120.7,85.7c-.1-1.5-1.4-1.7-1.3-3.2,1.5-.6,2.6.7,4.1.7.7,1.9,1.7,4.2,3.7,4.8,2.9.7,8.8-.2,8.3-2.7-.3-1.3-2-.5-2.3-2,.5-1.1,2.3-.9,3.8-1,1.8,1.1,1.8,5,4.9,4.9,1,0,3.8-1.1,3-3.1-.1-.5-.9-.4-1.6-.4a8.1,8.1,0,0,1-1.4-5c2.5-1.8,2.1-6.7.7-9.7-2-1.9-5-3.9-3.9-7.7a5.24,5.24,0,0,0-2.6-1c0-.4.3-1.2-.4-1.1-3.8-.6-7.1-.8-8,3.1-.4,1.5.3,3.1-.1,5.2a6,6,0,0,1,1.2,3.1c-1,1.9-4.2.4-5.3.3-3.6-.5-7.1.6-8.5,2.7-2,3.4.4,9-1.3,13.1C116.4,87.8,121.1,89.6,120.7,85.7Zm19.5-15.5h.5c.1.8.2,1-.3,1.4C139.8,71.6,140.1,70.8,140.2,70.2Zm-6.9,15.1a2.32,2.32,0,0,1-3.1-.4c0-.6.2-1.1-.1-1.4-1.4-.2-.2,2.2-1.4,2.2a5.08,5.08,0,0,0-.5-3.2c.8.7,1.3-.9,2.3-.1.7-.5-.1-1,.4-1.8C131.4,82.6,131.7,84.7,133.3,85.3Zm-3.1-5.7c-.5.4-.3,1.5-1.4,1.4a6.38,6.38,0,0,1-.1-2,14.25,14.25,0,0,0,5-1.8C134.5,78.5,131.4,79,130.2,79.6Zm4-2.7c.3-1.3-.7-1.2-.8-2,.7,0,1.1.8,1.8.1-.2-.6-.7-.6-.6-1.4a8.52,8.52,0,0,0,2.3.4C137.2,76.2,135.3,76.2,134.2,76.9Zm-.8-4.4c0-.1.1-.2.1-.3a1.32,1.32,0,0,1,1.7-.6c0,.7-.5.7-.5,1.4C134,73.2,134.1,72.3,133.4,72.5Zm4.6-6.6c.8-.6,1.2.6,1.2,1.4C138.6,67,137.9,66.8,138,65.9Zm-1.9-.2c0,.3.2.4.1.7a.67.67,0,0,1-1.1-.6A1.18,1.18,0,0,1,136.1,65.7Zm-3.6-5c1.1.5.4,1.8-.5,2.1C132.1,62,132.4,61.5,132.5,60.7Zm2.7.8a5.31,5.31,0,0,1-3.3,3.4A6.46,6.46,0,0,1,135.2,61.5Zm-.4,4.3c0,.7-.6.6-1.1.6v-.7C134.4,65.7,134.7,65.7,134.8,65.8Zm-1.6,2.6c1.8-.8,4.9-1.4,6.1.3a3.36,3.36,0,0,1-.4,2.4c-1-.3-.6-1.8-1.4-2.4a.91.91,0,0,0-.7.3,5.11,5.11,0,0,1,0,3c-.9,0-.7-1.3-1.2-1.6-1.5-.3-2,0-2.7,1-1.6-.3-2.9.5-3,2-2.4-1.5,2.8-3.2,3.8-4.2-.9-.1-1.3-.8-1.8-1.6-.4.1-.4.4-.9.4C131.3,65.9,132.8,67.3,133.2,68.4Zm-3.7-7c.8-.2.1,1,0,1.1C128.6,62.5,129.3,61.5,129.5,61.4Zm0,14.4c0,.9-1.4.7-1.9.4C127.6,75.4,129.1,75.1,129.5,75.8Zm-2.6-1.9c.5,0,.5.5.5,1.1C126.6,75.1,126.6,74.4,126.9,73.9Zm-2.9-.5c-.6-.1-.7-.5-.7-1.4C124.4,72,124.4,72.8,124,73.4Zm-5.3-.1a2.17,2.17,0,0,1,3-.8c-.4.9-1.5,1.1-2.3,1.5-.6.1-.3-.7-.8-.5C118.6,73.4,118.7,73.4,118.7,73.3Zm2.2,4c-.3,1.4-1.5,1-2.2,1A4.94,4.94,0,0,1,116,82c.2.9,1.4,1.4.7,2.4-3.8-2.3,1.7-4.4,1.9-7.1C119.4,78.3,119.9,76.7,120.9,77.3Zm-3.8-2.6c-.2.6.1.9.1,1.3a4.84,4.84,0,0,1-1.7,0C115.5,75.1,116.2,74.7,117.1,74.7Zm-1.4,3c.7-.2.4,1.5-.3,1.4C115.2,78.7,115.3,77.8,115.7,77.7Z" transform="translate(-57.08 -25.3)" fill="none"/><path d="M156,75.6c.8-.2.2-1.6.5-2,1.4-1.5,5.7-.1,6.5-2.2-1.7-2-5.4.6-7,.3.2-3.6,6-1.3,7.4-3.7-1.7-2.1-5.9.7-7.4.3.6-3.6,6-1.3,7.4-3.7-1.4-1.8-4.8.2-6.8.3,2-5.4,6-9.8,12.2-10.2-.8,2.8-2.2,4.9-2.6,8-.9,0-1.8.2-1.9,1,1.1,2.1,3.8.2,6,1-.1,1.2.3,2.9-.1,3.7-1.9.6-5.3-1-5.8,1,.9,2,4.2,0,6,1-.3,1.4.4,2.8.4,3.4-5.8.3-11.5.7-15,3.4,2,4.6,5.5,8.7,10.8,9.1.7-1.8-2.1-1.4-2.6-2.5a25.57,25.57,0,0,1,7.3-.8,7,7,0,0,1,.3,2.9c-1.7,0-3.8-.9-4.1.4s3.8,1.7,5.4,1c.7-.8.2-3.5.3-4.3,2,.2,4,.2,5.4,1-1.1,1.4-4.5.3-4.5,2.8,2.6.4,5.3-.9,7.2-2.3a14.94,14.94,0,0,0,5.4-7.4c-3.8-2.7-9.4-3.1-15.4-3.5.9-.4.8-1.8.8-3.4,2.6-.4,5.7,1.6,5.7-1.5-1.6-.7-4.2.3-5.7-.1.1-1.3-.3-3,.1-3.8,2.9.7,8.5-.6,3.9-2-.7-3.1-2.1-5.2-2.6-8.3,3.4,1.1,6.3,1.9,8.5,4.2,1.6,1.6,2.2,4.5,4.2,5.3.6-2.6-1.6-5-3.1-6.5-2.6-2.6-6.6-4.3-10.7-5-.2-3.2-2.5-2.3-3,0-9,1.7-16.7,8.5-15.2,20.2C154.4,73.8,154.6,75.3,156,75.6Zm9,3.4a22.6,22.6,0,0,1,12.1,0C175,81.7,167,81.7,165,79Zm19.5-1.3a11.74,11.74,0,0,1-3.7,4.8c-1.1-.3-2.3-.7-3.4-1,.7-1.1,2.5-1.3,2.9-2.8-1.1-1.8-4.7-2.1-7.7-2.4-4-.2-8.7.3-10.6,2.3.2,1.8,2.4,1.6,2.8,3.2-1.4-.1-2.1.6-3.3.7a18.19,18.19,0,0,1-3.8-4.5C164.4,74.7,177,74.8,184.5,77.7ZM170.8,54.3c2,2.1,2.4,5.6,3.5,8.6H172c0-1,0-1.7-.5-2-1.1.2-1.4.9-1.4,2H168A66.37,66.37,0,0,1,170.8,54.3Z" transform="translate(-57.08 -25.3)" fill="none"/><path d="M113.5,143.1c1.6-.7,3.1-1.7,4.7-2.5s3.6-1.3,4.6-2.8c-3.1-1.4-6.9-2-10.2-3.1-.4-.4-.2-1.5-1.2-1.4.2,1.4-.2,3.5.8,4.1.5-.1-.2-1.5.5-1.5,1.3.1,2-.2,2.7.8,0,1.2.4,2.1.3,3.5a16.64,16.64,0,0,1-2.7,1.3c-.4-.4-.1-1.4-.8-1.4-.4,1.2.4,3.1.3,4.7C113.2,144.8,113.2,143.8,113.5,143.1Zm6.6-5.4a11.12,11.12,0,0,1-3.7,2,8.63,8.63,0,0,0-.4-2.8C117.4,136.4,118.8,137.6,120.1,137.7Z" transform="translate(-57.08 -25.3)" fill="none"/><path d="M133.2,169.2c-.2-1.3-1.9-3.8-3.1-4.1,0,.7.5.9.4,1.7a46.27,46.27,0,0,1-6.9,5.5c-.6,0-.9-1.3-1.6-.7a11.65,11.65,0,0,0,3.1,3.9c.4-.6-.4-.9-.4-1.5a73.4,73.4,0,0,1,6.9-5.6C132.4,168.4,132.4,169.1,133.2,169.2Z" transform="translate(-57.08 -25.3)" fill="none"/><path d="M128.9,162.7c-.2-1-1.4-3.8-2.4-4.1-.6.3.5.7.1,1.6-2.6,1.5-4.5,3.8-8.4,4.2-.5-.6-1.1-1.6-.6-2.4a3.4,3.4,0,0,0,2-.3c.2-.1,0-.4.3-.4,0-.7-.4-.8-.5-1.4-4.2.3-2.6,5.3-.3,5.9,3.3.6,6.1-3.8,8.6-3.8C128.4,161.9,128.4,163.3,128.9,162.7Z" transform="translate(-57.08 -25.3)" fill="none"/><path d="M124.2,155c.8.1.4,1.5,1.6,1.4-.5-1.4-.3-3.6-1.3-4.6-.4.6-.1,1.5-.4,2.1a47.18,47.18,0,0,1-6.5,1.5c1.4-3.3,8.2-6.3,5.6-10.9-.7,3.6-5.4,3.2-8.8,3.9-.8-.1-.4-1.5-1.6-1.4.5,1.5.4,3.6,1.3,4.6.4-.4.1-1.6.4-2a26.91,26.91,0,0,1,6.8-1.6c-1.9,3.2-5,5.3-6.6,8.8C117.7,156.7,121.2,155.1,124.2,155Z" transform="translate(-57.08 -25.3)" fill="none"/><path d="M137,238.4c.9,1.7,2.9,2.3,3.4,4.4,2.1-1,3.6.7,5.9.4.6-1,.1-3,.3-4.5C144.7,236.1,139.3,236.5,137,238.4Z" transform="translate(-57.08 -25.3)" fill="#f4efea"/><path d="M229.1,136.3a51.88,51.88,0,0,1-8.8-.4c-.7-2.5,1.5-2.4,2.3-3.5-.7-.6-2-.2-3-.3-.1,3.2-.1,6.4-.4,9.5,1.1,0,2.3.6,3.1,0-.8-1.1-3.1-1.7-2-3.9,2.8.5,6.3,0,9.2.6,0,.7-.2,1.5.5,1.5.1-1.3.5-4.4,0-5.1C229.4,134.9,229.8,136.2,229.1,136.3Z" transform="translate(-57.08 -25.3)" fill="none"/><path d="M225.8,152.8c-3.6-2.2-4.8,4-7,4.1-2.7.1-2.2-3-.8-3.8.9-.6,2.2.1,2.7-1-.4-.4-2.4-.7-3.5-1-.1.5.3.7.3,1.1-2.8,2.4-.8,7.4,2.9,6,2.8-1.2,2.2-4.9,5.1-4.1a2.59,2.59,0,0,1,1.2,1.7c.4,3.1-2.3,2.5-4.2,3.5.5,1,2.3.9,3.5,1.3.7-.7-.5-.9-.1-1.3C227.9,157.6,227.5,153.7,225.8,152.8Z" transform="translate(-57.08 -25.3)" fill="none"/><path d="M133.3,156.9c7.3,15.8,22,22.6,37.9,29.6,15.7-7.3,30.8-13.7,37.8-30,7-15.9,5-40.7,5-63.7H128.3c-.3,0-.4.2-.4.6C128.5,116.7,126,141.1,133.3,156.9Zm27.6,15.7h-.4c-.8-1-.1-3.8-.4-5.5-.2-.5-1.1,1.1-1.6.3.3-1.2,1.8-1.1,2-2.4C161.7,166.4,161,170.6,160.9,172.6Zm6.8-.1c-1.5.4-3.1,0-2.7-1.8,1,0,.6,1.4,1.5,1.3,1.5,0,1.8-1.2,1.9-2.5-.8.7-4.9,1.4-3.8-2.8.4-1.5,4-2.5,4.6.3C169.6,168.4,169.2,172.1,167.7,172.5Zm4.4-.3c-1.3-1.2-.8-5.3.3-6.7C178.6,162.5,176.3,176.3,172.1,172.2Zm6,.5c-.3-2.4,4.4-3.4,3.9-5.8a1.47,1.47,0,0,0-1.8-1c-.9.1-.5,1.3-1.6,1.4-.7-2.7,3.9-2.9,4.3-.4s-2.8,3.1-3.6,5.1c1.1,0,2.7-.3,3.7.1C182.4,173.4,179.6,172.4,178.1,172.7Zm-28.8-30.5a64.87,64.87,0,0,0,14.5-9.8c0-.3.2-.3.3-.3V132a22.18,22.18,0,0,1-7.7.7c4.2-4.4,9.4-8,11.8-14.4a14.35,14.35,0,0,1-4.6.8c-.2-.7.4-1.2.7-1.8a44.64,44.64,0,0,0,6.9-15.6c1.4,3.1,2.3,6.3,3.7,9.1a83.6,83.6,0,0,0,4.6,8.3,14.35,14.35,0,0,1-4.6-.8c1.6,6.4,7.7,9.8,11.5,14.7a21,21,0,0,1-7.5-1c4.4,5.2,11,8,16.7,11.9-8.7,1.8-17.6-6-23.6.4-6.6-6-16.6,1-24.9-.4A4.56,4.56,0,0,1,149.3,142.2Zm-4.2,5.4c1.2-.6,3.2-.3,5-.7,6.7-1.1,15.5-6.2,21.7-.7,7.4-6.5,17.6,1.5,26.1,1.1a26.86,26.86,0,0,1,3.1,4.4H175.8c-.6.6.1,1.4,0,2.1h-8.3c-.1-1,.3-1.2.3-2.1H142.1C142.8,150.7,143.6,148.2,145.1,147.6Z" transform="translate(-57.08 -25.3)" fill="none"/><path d="M185.5,65.4c-1.5-.6-6.7-2.6-6.6.1,2.4,1.2,7.1,0,7.5,3.2-2.2-.1-6.1-2.5-7.5-.1,1.3,1.1,3.8.9,5.4,1.5.8.2,2.4.2,2,1.8-2.2,0-5-2-7.3-.4,1.2,2.3,5.3.9,6.9,2.4-.1.7-.3,1.5.7,1.5,2.3-1.2,1.9-8.7.3-10.5C186.4,64.2,186.2,65.4,185.5,65.4Z" transform="translate(-57.08 -25.3)" fill="none"/><path d="M220.4,120.1h-.6c.2,1.2-.6,3.3.1,3.9.9,0,0-1.7,1-1.4a16.19,16.19,0,0,1,4.1,2.7c-1.8.4-2.8,1.7-4.6,2.1-.2-.4,0-1.4-.6-1.4-.3,1.2-.6,4.1.1,4.8.5-.5.6-1.3,1-1.6,2.6-1.2,4.6-3.7,8.7-2.7.4.4-.2,1.7.5,1.7.1-1.8.7-4.2,0-5.2-.6.1-.1,1.4-.6,1.6A8.66,8.66,0,0,1,220.4,120.1Z" transform="translate(-57.08 -25.3)" fill="none"/><path d="M219,161.5c-3-5-6.8,1.7-7.7,4.8,1.1.3.9-1,1.8-.7,2.5,1.5,5.2,2.6,7.4,4.4.4.7-.8,1.4,0,1.4a8.55,8.55,0,0,0,2.2-4.2c-.7,0-.6,1-1.4,1-1.1-.8-2.7-.8-3.3-2.2.9-1.2,3.7-.8,6-1.1a4.8,4.8,0,0,0,1.5-3.1c-1.3,1.4-4.2,1.4-6.6,1.7A6,6,0,0,0,219,161.5Zm-1.5,4.5a31.68,31.68,0,0,1-4.1-2.1,4.52,4.52,0,0,1,1.4-2.4C217.8,161,218.7,164,217.5,166Z" transform="translate(-57.08 -25.3)" fill="none"/><path d="M143.4,179.5c-.2-1-2.4-2.8-3.3-3.1,0,.9.6,1,.5,2-1.5,1.7-2.6,3.7-4.6,4.8.7-3.1.8-6.8,1.4-10-.9-.5-1.4-2.3-2.4-2,1.1,2.3-.5,3.3-2.3,5.3-1.6,1.8-2.8,3.5-4.6,2.4.9,1.2,2.1,2.9,3.3,3.2-1.5-3,2.3-5.5,4.2-7.2-.1,3.8-1.2,7.6-.9,11.1,2.8-2.2,4.5-5.4,7.3-7.1C142.6,179.1,143,179.9,143.4,179.5Z" transform="translate(-57.08 -25.3)" fill="none"/><path d="M167.8,169.3a2.71,2.71,0,0,0,.1-3.2C165.2,164.7,164.4,170.2,167.8,169.3Z" transform="translate(-57.08 -25.3)" fill="none"/><path d="M172.9,171.9c3,1.3,2.7-4.3,1.8-5.9C171.7,164.7,171.9,170.4,172.9,171.9Z" transform="translate(-57.08 -25.3)" fill="none"/><path d="M227.6,146.7c-2.6-.7-5.9-.7-8.3-1.4-.3-.2-.2-.9-.3-1.5h-.5c.2,1.5-1.1,3.8-.1,4.9.4-.3.2-1.3.9-1.4a87,87,0,0,1,8.7,1.3c.6.3-.4,1.7.3,1.6.6-1,1.2-4.1.7-5.1C228.4,145.6,228.5,146.7,227.6,146.7Z" transform="translate(-57.08 -25.3)" fill="none"/><path d="M202.4,264.3c1.2,6.6,5.6,16.4,10.2,20.3,4,3.3,9.5-1.2,13-3.6a15.71,15.71,0,0,0-7.1-1.6C211.3,276.3,207.5,269.6,202.4,264.3Z" transform="translate(-57.08 -25.3)" fill="#f4efea"/><path d="M241.8,275.3c1.3,4.1.1,8.1-1.6,12.2C250.9,293.7,250.9,272.3,241.8,275.3Z" transform="translate(-57.08 -25.3)" fill="#f4efea"/><path d="M153.7,257.6c-6.1-4.8-11.4,3.2-15.8,6.1,4.4,2.5,4.8-4.3,8.6-4.6.3.5.8.7.9,1.4-1.1,3.9-5.1,4.9-5.2,9.9,3.6.9,8.9-1.2,8.4-5.4-.6-.8-1.8,1-2.5-.3C149.1,261.4,153.1,261.4,153.7,257.6Z" transform="translate(-57.08 -25.3)" fill="#f4efea"/><path d="M209.4,251.7c0,.7.6.9.3,1.9-3.3,1.2-4.8,4.3-9,4.5-.6-6.3,1-13.1,3.8-17-1.6-2.7-7.4-7.1-9-1.6,2.7,5.9.2,15.5.7,20.6-5.4,2.7-11.6,4.6-17.1,7.1,1.1,3.1,4,4,6.3,5.8,3-3.1,5.8-6.2,9.6-8.3,1.7,6.6-2.6,11.4-5.9,15-3.7,4.1-8.2,7.2-12.4,10a27.58,27.58,0,0,0,18.6-10.3c3.8-4.7,3-12.1,5.4-18.7,5.3-1.4,10.1-3.3,13.4-6.8C213.2,252.4,211.1,252.4,209.4,251.7Z" transform="translate(-57.08 -25.3)" fill="#f4efea"/><path d="M150.7,184.6c-2.6-5.7-10.7-2.9-10.6,2.9,0,3.6,2.8,5.2,6.1,6,.7-1,1.1-2.2,2.2-2.8.5-.2.8.7,1.2.1-.9-1.4-2.5-2.2-3.9-3-.3,1.1.9.8.9,1.8-.9,4.1-5.3,1.8-5-1.8.3-3.2,4.1-6.4,6.5-5.3,1.8.7,1.7,3.5,1.4,5.3a6.22,6.22,0,0,0,2.1-3.2C151.2,184.2,151.1,184.6,150.7,184.6Z" transform="translate(-57.08 -25.3)" fill="none"/><path d="M94.8,250.5c-3.6-.4-4,1.5-6.2,3.8-1.1,1-2.2,2-3.4,2.9-3.2,3.5-5.1,8.8-9.9,10.7-1-4.9,1.5-6.6,3.8-9.4,3.5-4.2,7.7-9.3,12.4-12.1.1-1.6,0-2.8-.7-3.6-1.7-.2-2.7.8-4,0-.8-2.6,1.7-3.4,1.2-5.8-.5-3.1-7-3.4-5.5-7.9-.5-1-1.5-1.3-2.8-1.4v-.3H79c-3.4.9-.7,6-1.2,10.3a26.72,26.72,0,0,1-.9,2.6c-1.1,4.6.6,9.3-.7,13.1-3.2.7-6.4,5.9-8.6,7.8-1.3,1.1-3.8,1.4-3.5,3.2.3,2.1,6,1.3,8,2.6,2.2,3,.2,4.8-2.8,5.7-.4,1.1.9,2.1,0,2.6-3.7,3.1-5.9,7.7-9,11.5-1.7-.4-1.6-2.7-2.2-4.2-1.2,1.2-1.1,3.8-.9,6.1.1,2,.4,4.1.7,6.1.8,3,3.8,7.2,7.8,6.4,3.4-3.3,0-8.1-2.8-9.6,0-3.5,1.5-5.4,2.8-7.4,2.5,1.2,3.9-3.2,5.5-3.3,2.2-.1,3.2,2.5,1.6,4.8.7,1.1,1.5-.8,2.8-.3,2.8,3.5-1.4,5.8-2.8,8,.6,1.4,2,.7,3.4.6,1.4,1.4,1.8,4,3.1,5.5,3.5-2.2,4.7-5.8,4.4-11,3.1,1.3,5.9,2.8,7.1,6.1,1.5-1.4,6.1-3.6,6.8-6.8.2-1.3-.5-2.6-.7-4.2-.5-5.3.3-13.1.9-17.9.5-3.1,2.8-7.1,2.6-8.8C100,253.8,95.9,252.3,94.8,250.5ZM78,280.7c-1,0-1.4-.7-2.2-1-.3-6,0-10.5,4.4-12.8C81.8,271.4,78.7,276.3,78,280.7Zm10.6,6.9h-5a5.2,5.2,0,0,1,.7-3.2c-.3-1.5-2-1.4-2.8-2.2,1.5-1.7.3-3.1-.4-4.9.5-5.4,7.9-9.7,2.8-13.9a10.76,10.76,0,0,1,5.9-6.9C90.8,264.2,88.6,276.4,88.6,287.6Z" transform="translate(-57.08 -25.3)" fill="#f4efea"/><path d="M142.2,273.3c-2.8.8,0,5.4-2.1,6.8,1.7,1.4,1.7,6.3-.3,7.4-4.9-.8-3.1-5.5-.4-7.4-6.4,1.5-9.8,6-16.7,7.1-.3,2,.8,4.8.9,7.4,1.2.4,2.2,1.1,4,1,3.2-2.8,4.8-7.5,8-10.3,2.8,2.1,3.9,6.1,6.3,8.6,1.3.5,2.2-2.1,3.1-3C143.9,285.2,146.3,275.9,142.2,273.3Z" transform="translate(-57.08 -25.3)" fill="#f4efea"/><path d="M283.4,236.7l-.3-.6c-2-.6-1-2.9-2.3-3.6a8.8,8.8,0,0,0-4.3,1.9c1.5,4.5-.8,12.3-4.3,14.7a9.81,9.81,0,0,0-.9-4.5,10.82,10.82,0,0,0-4.4.3c.1,1.5,3.4,2.2,2.5,5.8.2,1.1,2.2.6,2.4,1.9a14,14,0,0,1-1.5,4.9c-1.7.1-2.5-.6-4.4-.4-2.6-1.8-1.7-7.2.9-8.3-.2-2.3-2.5-2.4-3.1-4.2a9.52,9.52,0,0,1,7.5-7.4c2.2-5.1-2.5-6.5-5.3-8.3-1.3.3-1.9,1.2-2.7,2.2.7,5.4-.8,8.7-1.6,13.2-1.1,3.2-8,.5-8,4.8-2.3-1-3.5-.8-4.4,1.4,3.1,1.1,6.7,5.2,4,8.6-1.8-.7-2.3-2.7-4.3-3.2-.6.4-.6,1.7-1.5,1.9,1.3,2.4,1.8,3.8,1.2,6.4,3.4,3.4,5.4-1.3,5.5-4.2.3-1.6,1.8.3,2.3-1,.9-.8.7-2.8,1.2-4.2,1.4.2,1.3,1.9,2.1,2.9a18.32,18.32,0,0,1-2.8,4.9c2.5.6,3.4-3.1,4.4-4.9,2.4,1.1,4,1.5,6.5.3.6.9,1.4,1.5,1.6,2.9-5.3,5-13.3,7.4-18.6,12.5.9,1.7,3.7.8,5.6.7,2.1-2.2,4.7-4,7.1-6.1,2.1-1.8,4-5.4,7.4-4.8a13,13,0,0,1-6.8,10.7,4.07,4.07,0,0,1,1.9,2.2c-.9,1.6-1.4,3.9-2.4,5.4-6,3.2-10.6,7.7-15.3,12.2-2.6,0-4.1,1-5,2.9a8.52,8.52,0,0,0,9.1,1.5c2.9-1.5,4.2-7.5,7.7-7.7,1.2-2.8,3.6-6.1,5.9-6.8,1.1,3.6.3,8.7,1.9,11.5-2,2.8-7,.8-9.5,2.6,2.4,3.9,9.5-1,10.8,3.9h1.9c4.7-2.3,4.3-3.6,2.3-7.4-1.9-3.5-3.1-7.5-5-9.4.5-1.1.5-2.6,1.5-3.2,2.1.1,3.5-1.2,5.6-.3,1.1-1.2,3-3,1.9-5.4-.8-.7-2.7-.2-4-.4.5-3.4-3.5-2.2-4.1-4.5a8.09,8.09,0,0,1,5.9-4.8c2.9-3.4,5.9-6.7,7.5-11.5-4.7-4-6,4.4-9.6,2.6a19.89,19.89,0,0,1,4.7-10.3A32.34,32.34,0,0,1,283.4,236.7Zm-26.7,16.1c-1.7-.6-2-2.5-2.5-4.2,1.3-1.2,3.6-.3,4.6.7C258.5,250.9,258.1,252.4,256.7,252.8Zm5.2.9c-1.2.2-3.1.9-4,.3,0-1.8,1.8-5.8,4-5.4A8.86,8.86,0,0,1,261.9,253.7Z" transform="translate(-57.08 -25.3)" fill="#f4efea"/><path d="M131.4,265.9c.6,4,.8,6.9,4.3,8.3.8-.8,2.1-1.2,2.8-2.2C139.4,266.6,134.4,261.7,131.4,265.9Z" transform="translate(-57.08 -25.3)" fill="#f4efea"/><path d="M197.5,193.2c-1.1-2.7-2.5-5.3-3.7-8,.2-.6.9-.7,1.2-1.3a7.56,7.56,0,0,0-4.5,2.1c.4.6,1.1-.3,1.8,0a74.9,74.9,0,0,1,3.8,8.1c0,.8-1.1.5-1.1,1.4a10.37,10.37,0,0,0,4.4-2C199,192.9,198.2,193.8,197.5,193.2Z" transform="translate(-57.08 -25.3)" fill="none"/><path d="M188.5,186.5c-1.1.9-3.1.9-3.9,2.2.5.4,1-.3,2,0a28.85,28.85,0,0,1,2.6,6.3c-2.9-1.5-5.5-3.5-8.5-4.9-.7.6-2.7.8-2.6,1.6.4.6,1.1-.3,1.8,0,.7,1.8,3.8,5.7,3.4,8,0,.8-.9.8-.9,1.5a9,9,0,0,0,4.3-1.8,15.48,15.48,0,0,0-2.2-.1,23.47,23.47,0,0,1-2.9-6.7l5,2.8c1.5.8,3,2.6,4.8,2a72.23,72.23,0,0,1-3.7-9.1C187.7,187.3,189.5,187.3,188.5,186.5Z" transform="translate(-57.08 -25.3)" fill="none"/><path d="M171.9,192.4c0,.6,1.1.2,1.4.6,1.2,3.9,1,10.2-2.9,9.5-3.1-.4-2.1-6.1-2-9.5.3-.4,1.5,0,1.4-.8-.9-.1-3.8-.5-4.6.3.3.4,1.3.1,1.4.8,1.2,3.3-1.2,7.2.9,9.3s6.5.9,7.2-1.8c.5-2.4-.8-5.4.4-7.7.1-.4,1.3,0,1.1-1C175.3,192,172.6,191.6,171.9,192.4Z" transform="translate(-57.08 -25.3)" fill="none"/><path d="M204.3,175.7c-.7,1.1-2.9,1.8-2.9,3.1.7-.1,1.1-.6,1.8-.7.8,2.2,2,5,2,7.4a40.12,40.12,0,0,1-6.5-4.2c2.3-2.7-2.1.4-2.8,1.8.5.4,1-.4,1.9-.3,2.8,2,6,3.8,8.8,5.6.8-3.3-2.5-7.6-2.4-11C204.2,176.5,205.1,176.4,204.3,175.7Z" transform="translate(-57.08 -25.3)" fill="none"/><path d="M210.21,196.27A74.61,74.61,0,0,0,235.9,160.1c5.2-16.1,4.7-37.5,4.1-58.2-.1-3.37-.13-6.74-.13-10.12,0-14.86.8-29.79.62-44.56q0-3.87-.19-7.72c-.87-.19-1.83.73-3.16,1.42l-.09.06h0l0,0-.4.19a67.38,67.38,0,0,1-15,5.28A65.93,65.93,0,0,1,206.4,48.1a95.67,95.67,0,0,1-16.91-1.4c-7.14-1.28-13.48-3.5-18.3-6.88-6.15,4-13.91,6.44-22.52,7.54a94.16,94.16,0,0,1-12.17.74A67.57,67.57,0,0,1,101.7,39V74.3c1.7,26.1-1.9,56.1,2.7,78.7a66.73,66.73,0,0,0,7.26,19.32l0,.1a77.7,77.7,0,0,0,17.74,21.9A76.36,76.36,0,0,0,137,200c1.07.72,2.16,1.4,3.27,2.06C150,207.81,161,211.75,171,218.69c2.39-1.53,4.83-2.95,7.29-4.3,10.95-6.08,22.38-10.77,31.9-18.12Zm-39,17.23c-13-7.3-27-11.7-37.5-20.1s-18.5-20-23.4-34.6c-5.1-15.3-3.9-34.4-3.9-54.3,0-19.5-.4-39.2-.3-58.4,1.1-.3,2.4.6,3.3,1,17.1,7.1,46.9,6.8,61.7-2.3,8.4,4.8,20.4,7.2,32.3,7.3a76.9,76.9,0,0,0,32.3-6.2q-.3,28.65-.3,58.5c0,19.9.8,39-3.9,54.4a72.66,72.66,0,0,1-23.3,34.6C197.6,201.9,183.8,206.1,171.2,213.5Z" transform="translate(-57.08 -25.3)" fill="none"/><path d="M148.8,275.5c1,3-2.2,9.9-.4,13.2,2,3.6,6.3-.8,6.6-2.9C155.4,281.7,151.9,276.1,148.8,275.5Z" transform="translate(-57.08 -25.3)" fill="#f4efea"/><path d="M219.1,174.8c-1.1-.3-1.7-2.1-2.6-2,1.5,2.3.2,5.8-1.8,5.8-1.4.1-2.4-1.8-3.3-2.8.4-1.7,2.6-1,3.7-1.3-1.4-.7-2.5-2.7-3.7-2.7.8,1.1.7,3.2-.8,3.6-.7-1.1-3-1.7-3.1-2.8,0-.6,2.2-2.1,2.3-2.4.9-.4,2.2.7,2.3-.3,0-.4-1.2-1.3-1.9-1.7-1.4,2.3-3.6,4.2-5.1,6.7.7.5,1-.7,1.8-.6,2.2,1.9,4.6,3.5,6.5,5.8.4.4-.4.8-.4,1.5C215.3,180.3,217.1,176.8,219.1,174.8Z" transform="translate(-57.08 -25.3)" fill="none"/><path d="M146.5,245.7a67.85,67.85,0,0,1-8.6,3.9c-3,1.3-5.3,3.9-7.8,5.4-1.9,1.2-4.3,1.1-5.2,3.2,1.9,1.7,4.5,2.8,8.6,2.3a45.43,45.43,0,0,1,6.3-6.1c2.1-1.8,4.1-4.6,6.5-5.8,3.4-1.6,8.5-1,9.6-5.8C152.3,239.2,149.3,244.1,146.5,245.7Z" transform="translate(-57.08 -25.3)" fill="#f4efea"/><path d="M135.2,61.5a6.46,6.46,0,0,0-3.3,3.4A5.31,5.31,0,0,0,135.2,61.5Z" transform="translate(-57.08 -25.3)" fill="#f4efea"/><path d="M132.5,60.7c-.1.8-.4,1.3-.5,2.1C132.9,62.5,133.6,61.2,132.5,60.7Z" transform="translate(-57.08 -25.3)" fill="#f4efea"/><path d="M133.7,66.4c.5,0,1.1.1,1.1-.6-.1-.1-.4-.1-1.1-.1Z" transform="translate(-57.08 -25.3)" fill="#f4efea"/><path d="M133.7,69.2c-1,1-6.2,2.7-3.8,4.2.1-1.5,1.4-2.3,3-2,.7-1,1.2-1.3,2.7-1,.5.3.3,1.6,1.2,1.6a5.11,5.11,0,0,0,0-3,.91.91,0,0,1,.7-.3c.8.6.4,2.1,1.4,2.4a3.36,3.36,0,0,0,.4-2.4c-1.2-1.7-4.3-1.1-6.1-.3-.4-1.1-1.9-2.5-2.2-.4.5,0,.5-.3.9-.4C132.4,68.4,132.8,69.1,133.7,69.2Z" transform="translate(-57.08 -25.3)" fill="#f4efea"/><path d="M136.2,66.4c.1-.3-.1-.4-.1-.7a1.18,1.18,0,0,0-1,.1A.67.67,0,0,0,136.2,66.4Z" transform="translate(-57.08 -25.3)" fill="#f4efea"/><path d="M134.7,73c0-.7.5-.7.5-1.4a1.32,1.32,0,0,0-1.7.6c0,.1-.1.2-.1.3C134.1,72.3,134,73.2,134.7,73Z" transform="translate(-57.08 -25.3)" fill="#f4efea"/><path d="M120.1,137.7c-1.3-.1-2.7-1.3-4.1-.8a8.63,8.63,0,0,1,.4,2.8A11.12,11.12,0,0,0,120.1,137.7Z" transform="translate(-57.08 -25.3)" fill="#f4efea"/><path d="M129.5,62.5c.1-.1.8-1.3,0-1.1C129.3,61.5,128.6,62.5,129.5,62.5Z" transform="translate(-57.08 -25.3)" fill="#f4efea"/><path d="M117.2,76c0-.4-.3-.7-.1-1.3-.9,0-1.6.4-1.6,1.3A4.84,4.84,0,0,0,117.2,76Z" transform="translate(-57.08 -25.3)" fill="#f4efea"/><path d="M116.7,84.4c.7-1-.5-1.5-.7-2.4a4.94,4.94,0,0,0,2.7-3.7c.7,0,1.9.4,2.2-1-1-.6-1.5,1-2.3,0C118.4,80,112.9,82.1,116.7,84.4Z" transform="translate(-57.08 -25.3)" fill="#f4efea"/><path d="M115.7,77.7c-.4.1-.5,1-.3,1.4C116.1,79.2,116.4,77.5,115.7,77.7Z" transform="translate(-57.08 -25.3)" fill="#f4efea"/><path d="M134.6,73.6c-.1.8.4.8.6,1.4-.7.7-1.1-.1-1.8-.1.1.8,1.1.7.8,2,1.1-.7,3-.7,2.7-2.9A8.52,8.52,0,0,1,134.6,73.6Z" transform="translate(-57.08 -25.3)" fill="#f4efea"/><path d="M119.4,74c.8-.4,1.9-.6,2.3-1.5a2.17,2.17,0,0,0-3,.8c0,.1-.1.1-.1.2C119.1,73.3,118.8,74.1,119.4,74Z" transform="translate(-57.08 -25.3)" fill="#f4efea"/><path d="M129.5,75.8c-.4-.7-1.9-.4-1.9.4C128.1,76.5,129.5,76.7,129.5,75.8Z" transform="translate(-57.08 -25.3)" fill="#f4efea"/><path d="M127.4,75c0-.6,0-1.1-.5-1.1C126.6,74.4,126.6,75.1,127.4,75Z" transform="translate(-57.08 -25.3)" fill="#f4efea"/><path d="M124,73.4c.4-.6.4-1.4-.7-1.4C123.3,72.9,123.4,73.3,124,73.4Z" transform="translate(-57.08 -25.3)" fill="#f4efea"/><path d="M139.2,67.3c0-.8-.4-2-1.2-1.4C137.9,66.8,138.6,67,139.2,67.3Z" transform="translate(-57.08 -25.3)" fill="#f4efea"/><path d="M179.3,172c.8-2,3.9-2.5,3.6-5.1s-5-2.3-4.3.4c1.1-.1.7-1.3,1.6-1.4a1.47,1.47,0,0,1,1.8,1c.5,2.4-4.2,3.4-3.9,5.8,1.5-.3,4.3.7,4.9-.6C182,171.7,180.4,172,179.3,172Z" transform="translate(-57.08 -25.3)" fill="#f4efea"/><path d="M158.5,167.4c.5.8,1.4-.8,1.6-.3.3,1.7-.4,4.5.4,5.5h.4c.1-2,.8-6.2-.4-7.6C160.3,166.3,158.8,166.2,158.5,167.4Z" transform="translate(-57.08 -25.3)" fill="#f4efea"/><path d="M172.4,165.5c-1.1,1.4-1.6,5.5-.3,6.7C176.3,176.3,178.6,162.5,172.4,165.5Zm.5,6.4c-1-1.5-1.2-7.2,1.8-5.9C175.6,167.6,175.9,173.2,172.9,171.9Z" transform="translate(-57.08 -25.3)" fill="#f4efea"/><path d="M164.6,166.7c-1.1,4.2,3,3.5,3.8,2.8-.1,1.3-.4,2.5-1.9,2.5-.9.1-.5-1.3-1.5-1.3-.4,1.8,1.2,2.2,2.7,1.8s1.9-4.1,1.5-5.5C168.6,164.2,165,165.2,164.6,166.7Zm3.2,2.6c-3.4.9-2.6-4.6.1-3.2A2.71,2.71,0,0,1,167.8,169.3Z" transform="translate(-57.08 -25.3)" fill="#f4efea"/><path d="M130.9,80.6c-.5.8.3,1.3-.4,1.8-1-.8-1.5.8-2.3.1a5.08,5.08,0,0,1,.5,3.2c1.2,0,0-2.4,1.4-2.2.3.3.1.8.1,1.4a2.32,2.32,0,0,0,3.1.4C131.7,84.7,131.4,82.6,130.9,80.6Z" transform="translate(-57.08 -25.3)" fill="#f4efea"/><path d="M172,144.3c6-6.4,14.9,1.4,23.6-.4-5.7-3.9-12.3-6.7-16.7-11.9a21,21,0,0,0,7.5,1c-3.8-4.9-9.9-8.3-11.5-14.7a14.35,14.35,0,0,0,4.6.8,83.6,83.6,0,0,1-4.6-8.3c-1.4-2.8-2.3-6-3.7-9.1a44.64,44.64,0,0,1-6.9,15.6c-.3.6-.9,1.1-.7,1.8a14.35,14.35,0,0,0,4.6-.8c-2.4,6.4-7.6,10-11.8,14.4a22.18,22.18,0,0,0,7.7-.7v.1c-.1,0-.3,0-.3.3a64.87,64.87,0,0,1-14.5,9.8,4.56,4.56,0,0,0-2.2,1.7C155.4,145.3,165.4,138.3,172,144.3Z" transform="translate(-57.08 -25.3)" fill="#f4efea"/><path d="M140.4,71.6c.5-.4.4-.6.3-1.4h-.5C140.1,70.8,139.8,71.6,140.4,71.6Z" transform="translate(-57.08 -25.3)" fill="#f4efea"/><path d="M128.7,79a6.38,6.38,0,0,0,.1,2c1.1.1.9-1,1.4-1.4,1.2-.6,4.3-1.1,3.5-2.4A14.25,14.25,0,0,1,128.7,79Z" transform="translate(-57.08 -25.3)" fill="#f4efea"/><path d="M170.1,62.9c0-1.1.3-1.8,1.4-2,.5.3.5,1,.5,2h2.3c-1.1-3-1.5-6.5-3.5-8.6a66.37,66.37,0,0,0-2.8,8.6Z" transform="translate(-57.08 -25.3)" fill="#f4efea"/><path d="M157.7,78a18.19,18.19,0,0,0,3.8,4.5c1.2-.1,1.9-.8,3.3-.7-.4-1.6-2.6-1.4-2.8-3.2,1.9-2,6.6-2.5,10.6-2.3,3,.3,6.6.6,7.7,2.4-.4,1.5-2.2,1.7-2.9,2.8,1.1.3,2.3.7,3.4,1a11.74,11.74,0,0,0,3.7-4.8C177,74.8,164.4,74.7,157.7,78Z" transform="translate(-57.08 -25.3)" fill="#f4efea"/><path d="M167.5,153.8h8.3c.1-.7-.6-1.5,0-2.1H201a26.86,26.86,0,0,0-3.1-4.4c-8.5.4-18.7-7.6-26.1-1.1-6.2-5.5-15-.4-21.7.7-1.8.4-3.8.1-5,.7-1.5.6-2.3,3.1-3,4.1h25.7C167.8,152.6,167.4,152.8,167.5,153.8Z" transform="translate(-57.08 -25.3)" fill="#f4efea"/><path d="M165,79c2,2.7,10,2.7,12.1,0A22.6,22.6,0,0,0,165,79Z" transform="translate(-57.08 -25.3)" fill="#f4efea"/><path d="M211.3,64.9c-.3-2-1.8-2.7-3.3-3.4A8.3,8.3,0,0,0,211.3,64.9Z" transform="translate(-57.08 -25.3)" fill="#f4efea"/><path d="M204.8,71c.7-.6.4-2,1.4-2.2a.75.75,0,0,1,.5.7,3.58,3.58,0,0,0,0,2.5c1,0,.5-1.3,1.2-1.6,2-.8,2.2,1.6,4.1.7a20.53,20.53,0,0,1,2,2.3c1.5-2.3-3.3-2.7-4.2-4.3,1.6.3,1.2-2.1,2.7-1a2.3,2.3,0,0,0-.9-1.4c-.5.7-.7,1.5-1.6,1.8-1.7-.9-4.7-1.2-5.8.3C204.3,69.6,203.9,71,204.8,71Z" transform="translate(-57.08 -25.3)" fill="#f4efea"/><path d="M224.2,73.7a.91.91,0,0,0,.7-.3c-.6-1.4-1.6-1.1-3.1-1.1A1.94,1.94,0,0,0,224.2,73.7Z" transform="translate(-57.08 -25.3)" fill="#f4efea"/><path d="M222.5,77.7c.7.6,1.1,1.1,2.3.7.3,1.5.9,3,2.4,3.2.5,1-1.1,1.8-.4,2.8,3.9-2.4-1.9-4.1-1.8-7C224.1,78.3,223.3,76.5,222.5,77.7Z" transform="translate(-57.08 -25.3)" fill="#f4efea"/><path d="M227.4,77.4c.1.7-.1,1.8.7,1.7C228.3,78.3,228.2,77.5,227.4,77.4Z" transform="translate(-57.08 -25.3)" fill="#f4efea"/><path d="M209.8,66.4c.1-1.1-2.4-1.1-2.4,0C208,66.7,208.8,66.1,209.8,66.4Z" transform="translate(-57.08 -25.3)" fill="#f4efea"/><path d="M214.4,62.5a1.73,1.73,0,0,0-.1-1h-.7C213.7,61.9,213.8,62.5,214.4,62.5Z" transform="translate(-57.08 -25.3)" fill="#f4efea"/><path d="M211.5,62.8c0,.1.1.1.2.1-.6-.6-.3-2-.9-2.4A1.79,1.79,0,0,0,211.5,62.8Z" transform="translate(-57.08 -25.3)" fill="#f4efea"/><path d="M228.1,76c0-1-1-1.1-1.6-1.5a2.52,2.52,0,0,1-.1,1.5Z" transform="translate(-57.08 -25.3)" fill="#f4efea"/><path d="M214.5,81a3.28,3.28,0,0,0,.3-2c-2-.8-5.3-.4-5.4-3.2-.1-.6,1,0,.8-.8-.5-.4-1.1.8-1.8.3,0-.7.9-1.3.4-1.8-.1.7-1.4.3-2.2.4,0,1.5.5,2.5,2.2,2.4a4.7,4.7,0,0,0,1.9,2.5C212.3,78.3,213.1,80.5,214.5,81Z" transform="translate(-57.08 -25.3)" fill="#f4efea"/><path d="M209.9,72.5a1.09,1.09,0,0,0-.9-1.1,1.85,1.85,0,0,0-.7.2c-.1.7.5.8.5,1.4C209.4,73,209.5,72.6,209.9,72.5Z" transform="translate(-57.08 -25.3)" fill="#f4efea"/><path d="M212.9,82.4c-.6-.3.3-1.7-.7-1.7a4.63,4.63,0,0,1-2,4.6,3.65,3.65,0,0,0,2.9,0c.4-.4,0-1.7.5-1.8,1.2,0,0,2.4,1.2,2.2-.1-1.8-.1-2.2.8-3.2C214.5,83.3,214,81.7,212.9,82.4Z" transform="translate(-57.08 -25.3)" fill="#f4efea"/><path d="M214.2,76.3a2.57,2.57,0,0,0,1.5.1c.3-1-.9-1.3-1.5-.7Z" transform="translate(-57.08 -25.3)" fill="#f4efea"/><path d="M203.3,70.1c-.3.4-.7.7-.6,1.4C203.5,71.8,203.6,70.4,203.3,70.1Z" transform="translate(-57.08 -25.3)" fill="#f4efea"/><path d="M220.2,73V72h-.7c-.3.6-.4.6-.1,1.3C219.8,73.3,219.8,73,220.2,73Z" transform="translate(-57.08 -25.3)" fill="#f4efea"/><path d="M216.5,75c.4-.1.4-1.1-.3-1.1C216.1,74,215.7,75.3,216.5,75Z" transform="translate(-57.08 -25.3)" fill="#f4efea"/><path d="M231.5,158.8c4.7-15.4,3.9-34.5,3.9-54.4s.1-39.4.3-58.5a76.9,76.9,0,0,1-32.3,6.2c-11.9-.1-23.9-2.5-32.3-7.3-14.8,9.1-44.6,9.4-61.7,2.3-.9-.4-2.2-1.3-3.3-1-.1,19.2.3,38.9.3,58.4,0,19.9-1.2,39,3.9,54.3,4.9,14.6,12.9,26.2,23.4,34.6s24.5,12.8,37.5,20.1c12.6-7.4,26.4-11.6,37-20.1A72.66,72.66,0,0,0,231.5,158.8Zm-7.5,6.1c-2.3.3-5.1-.1-6,1.1.6,1.4,2.2,1.4,3.3,2.2.8,0,.7-1,1.4-1a8.55,8.55,0,0,1-2.2,4.2c-.8,0,.4-.7,0-1.4-2.2-1.8-4.9-2.9-7.4-4.4-.9-.3-.7,1-1.8.7.9-3.1,4.7-9.8,7.7-4.8a6,6,0,0,1-.1,2c2.4-.3,5.3-.3,6.6-1.7A4.8,4.8,0,0,1,224,164.9ZM127.9,93.4c0-.4.1-.6.4-.6H214c0,23,2,47.8-5,63.7-7,16.3-22.1,22.7-37.8,30-15.9-7-30.6-13.8-37.9-29.6S128.5,116.7,127.9,93.4Zm98,65.9c-.4.4.8.6.1,1.3-1.2-.4-3-.3-3.5-1.3,1.9-1,4.6-.4,4.2-3.5a2.59,2.59,0,0,0-1.2-1.7c-2.9-.8-2.3,2.9-5.1,4.1-3.7,1.4-5.7-3.6-2.9-6,0-.4-.4-.6-.3-1.1,1.1.3,3.1.6,3.5,1-.5,1.1-1.8.4-2.7,1-1.4.8-1.9,3.9.8,3.8,2.2-.1,3.4-6.3,7-4.1C227.5,153.7,227.9,157.6,225.9,159.3Zm2.4-9.1c-.7.1.3-1.3-.3-1.6a87,87,0,0,0-8.7-1.3c-.7.1-.5,1.1-.9,1.4-1-1.1.3-3.4.1-4.9h.5c.1.6,0,1.3.3,1.5,2.4.7,5.7.7,8.3,1.4.9,0,.8-1.1,1.4-1.6C229.5,146.1,228.9,149.2,228.3,150.2Zm1.7-10.4c-.7,0-.5-.8-.5-1.5-2.9-.6-6.4-.1-9.2-.6-1.1,2.2,1.2,2.8,2,3.9-.8.6-2,0-3.1,0,.3-3.1.3-6.3.4-9.5,1,.1,2.3-.3,3,.3-.8,1.1-3,1-2.3,3.5a51.88,51.88,0,0,0,8.8.4c.7-.1.3-1.4.9-1.6C230.5,135.4,230.1,138.5,230,139.8Zm.1-16.8c.7,1,.1,3.4,0,5.2-.7,0-.1-1.3-.5-1.7-4.1-1-6.1,1.5-8.7,2.7-.4.3-.5,1.1-1,1.6-.7-.7-.4-3.6-.1-4.8.6,0,.4,1,.6,1.4,1.8-.4,2.8-1.7,4.6-2.1a16.19,16.19,0,0,0-4.1-2.7c-1-.3-.1,1.4-1,1.4-.7-.6.1-2.7-.1-3.9h.6a8.66,8.66,0,0,0,9.1,4.5C230,124.4,229.5,123.1,230.1,123ZM198.2,84.2c.4-.6,1.4-.3,1.9-.7,1.8-1.8,1.8-6-.4-7.3-1.1-7,3.3-8.6,5.4-12.2.1-1-.4-1.4-.4-2.5.7-1,2.7-1,2.7-2.2a21.57,21.57,0,0,0,5.1-.6c2.3,1.3,3.8,5.2,3.3,8.4-.1,1.4-1.5,2.2-1.4,3.8,2.2,1.7,4.6-.1,6.6-.3,2.6-.1,5.8,1.1,7.2,3.2,2,3.1.1,9,1.1,12.8a9.64,9.64,0,0,1-6.4,1.4c-1.6-1.8.3-3.8.7-5.2-1.1-1.1-2.7.6-4.2.6-.4,2.4-1.9,3.5-3.6,4.6-2.4.1-8,.4-8-2.3,0-1.5,1.5-.8,2-2.2a3,3,0,0,0-3.4-1.1c-2.3.7-1.8,5.2-5.1,4.9a3,3,0,0,1-3.1-3ZM186.9,64.9c1.6,1.8,2,9.3-.3,10.5-1,0-.8-.8-.7-1.5-1.6-1.5-5.7-.1-6.9-2.4,2.3-1.6,5.1.4,7.3.4.4-1.6-1.2-1.6-2-1.8-1.6-.6-4.1-.4-5.4-1.5,1.4-2.4,5.3,0,7.5.1-.4-3.2-5.1-2-7.5-3.2-.1-2.7,5.1-.7,6.6-.1C186.2,65.4,186.4,64.2,186.9,64.9ZM169.4,52.5c.5-2.3,2.8-3.2,3,0,4.1.7,8.1,2.4,10.7,5,1.5,1.5,3.7,3.9,3.1,6.5-2-.8-2.6-3.7-4.2-5.3-2.2-2.3-5.1-3.1-8.5-4.2.5,3.1,1.9,5.2,2.6,8.3,4.6,1.4-1,2.7-3.9,2-.4.8,0,2.5-.1,3.8,1.5.4,4.1-.6,5.7.1,0,3.1-3.1,1.1-5.7,1.5,0,1.6.1,3-.8,3.4,6,.4,11.6.8,15.4,3.5a14.94,14.94,0,0,1-5.4,7.4c-1.9,1.4-4.6,2.7-7.2,2.3,0-2.5,3.4-1.4,4.5-2.8-1.4-.8-3.4-.8-5.4-1-.1.8.4,3.5-.3,4.3-1.6.7-5.7.4-5.4-1s2.4-.4,4.1-.4a7,7,0,0,0-.3-2.9,25.57,25.57,0,0,0-7.3.8c.5,1.1,3.3.7,2.6,2.5-5.3-.4-8.8-4.5-10.8-9.1,3.5-2.7,9.2-3.1,15-3.4,0-.6-.7-2-.4-3.4-1.8-1-5.1,1-6-1,.5-2,3.9-.4,5.8-1,.4-.8,0-2.5.1-3.7-2.2-.8-4.9,1.1-6-1,.1-.8,1-1,1.9-1,.4-3.1,1.8-5.2,2.6-8-6.2.4-10.2,4.8-12.2,10.2,2-.1,5.4-2.1,6.8-.3-1.4,2.4-6.8.1-7.4,3.7,1.5.4,5.7-2.4,7.4-.3-1.4,2.4-7.2.1-7.4,3.7,1.6.3,5.3-2.3,7-.3-.8,2.1-5.1.7-6.5,2.2-.3.4.3,1.8-.5,2-1.4-.3-1.6-1.8-1.8-2.9C152.7,61,160.4,54.2,169.4,52.5ZM115,73.6c1.4-2.1,4.9-3.2,8.5-2.7,1.1.1,4.3,1.6,5.3-.3a6,6,0,0,0-1.2-3.1c.4-2.1-.3-3.7.1-5.2.9-3.9,4.2-3.7,8-3.1.7-.1.4.7.4,1.1a5.24,5.24,0,0,1,2.6,1c-1.1,3.8,1.9,5.8,3.9,7.7,1.4,3,1.8,7.9-.7,9.7a8.1,8.1,0,0,0,1.4,5c.7,0,1.5-.1,1.6.4.8,2-2,3.1-3,3.1-3.1.1-3.1-3.8-4.9-4.9-1.5.1-3.3-.1-3.8,1,.3,1.5,2,.7,2.3,2,.5,2.5-5.4,3.4-8.3,2.7-2-.6-3-2.9-3.7-4.8-1.5,0-2.6-1.3-4.1-.7-.1,1.5,1.2,1.7,1.3,3.2.4,3.9-4.3,2.1-7,1C115.4,82.6,113,77,115,73.6Zm-2.3,49.5c-.4.3-.3,1.3-.7,1.7-.8-.7-.4-3.6-.3-4.6.8,0,.4,1.3.8,1.6,2.6.4,6,.7,8.4,0a2.14,2.14,0,0,0,.8-1.7h.5v3.4c-2.7,1.8-5.3,3.9-7.9,5.9,2.6.3,7.3,1.1,7.4-1.7.8.6.4,3.5.3,4.5-.8-.1-.5-1.7-1.3-1.8-3.1-.1-6.6.3-9.5-.1,2.3-3.1,6-4.5,8.5-7.1C118.2,123.1,114.5,122.7,112.7,123.1Zm-.5,17c.7,0,.4,1,.8,1.4a16.64,16.64,0,0,0,2.7-1.3c.1-1.4-.3-2.3-.3-3.5-.7-1-1.4-.7-2.7-.8-.7,0,0,1.4-.5,1.5-1-.6-.6-2.7-.8-4.1,1-.1.8,1,1.2,1.4,3.3,1.1,7.1,1.7,10.2,3.1-1,1.5-3,2-4.6,2.8s-3.1,1.8-4.7,2.5c-.3.7-.3,1.7-1,1.7C112.6,143.2,111.8,141.3,112.2,140.1Zm2.3,9.5c-.3.4,0,1.6-.4,2-.9-1-.8-3.1-1.3-4.6,1.2-.1.8,1.3,1.6,1.4,3.4-.7,8.1-.3,8.8-3.9,2.6,4.6-4.2,7.6-5.6,10.9a47.18,47.18,0,0,0,6.5-1.5c.3-.6,0-1.5.4-2.1,1,1,.8,3.2,1.3,4.6-1.2.1-.8-1.3-1.6-1.4-3,.1-6.5,1.7-9.5,1.8,1.6-3.5,4.7-5.6,6.6-8.8A26.91,26.91,0,0,0,114.5,149.6Zm4.6,16.2c-2.3-.6-3.9-5.6.3-5.9.1.6.5.7.5,1.4-.3,0-.1.3-.3.4a3.4,3.4,0,0,1-2,.3c-.5.8.1,1.8.6,2.4,3.9-.4,5.8-2.7,8.4-4.2.4-.9-.7-1.3-.1-1.6,1,.3,2.2,3.1,2.4,4.1-.5.6-.5-.8-1.2-.7C125.2,162,122.4,166.4,119.1,165.8Zm6,9.7a11.65,11.65,0,0,1-3.1-3.9c.7-.6,1,.7,1.6.7a46.27,46.27,0,0,0,6.9-5.5c.1-.8-.4-1-.4-1.7,1.2.3,2.9,2.8,3.1,4.1-.8-.1-.8-.8-1.6-.8a73.4,73.4,0,0,0-6.9,5.6C124.7,174.6,125.5,174.9,125.1,175.5Zm9.6,10.5c-.3-3.5.8-7.3.9-11.1-1.9,1.7-5.7,4.2-4.2,7.2-1.2-.3-2.4-2-3.3-3.2,1.8,1.1,3-.6,4.6-2.4,1.8-2,3.4-3,2.3-5.3,1-.3,1.5,1.5,2.4,2-.6,3.2-.7,6.9-1.4,10,2-1.1,3.1-3.1,4.6-4.8.1-1-.5-1.1-.5-2,.9.3,3.1,2.1,3.3,3.1-.4.4-.8-.4-1.4-.6C139.2,180.6,137.5,183.8,134.7,186Zm14.8,1.8c.3-1.8.4-4.6-1.4-5.3-2.4-1.1-6.2,2.1-6.5,5.3-.3,3.6,4.1,5.9,5,1.8,0-1-1.2-.7-.9-1.8,1.4.8,3,1.6,3.9,3-.4.6-.7-.3-1.2-.1-1.1.6-1.5,1.8-2.2,2.8-3.3-.8-6.1-2.4-6.1-6-.1-5.8,8-8.6,10.6-2.9.4,0,.5-.4.9,0A6.22,6.22,0,0,1,149.5,187.8Zm25.6,5.3c-1.2,2.3.1,5.3-.4,7.7-.7,2.7-5.1,3.9-7.2,1.8s.3-6-.9-9.3c-.1-.7-1.1-.4-1.4-.8.8-.8,3.7-.4,4.6-.3.1.8-1.1.4-1.4.8-.1,3.4-1.1,9.1,2,9.5,3.9.7,4.1-5.6,2.9-9.5-.3-.4-1.4,0-1.4-.6.7-.8,3.4-.4,4.3-.3C176.4,193.1,175.2,192.7,175.1,193.1Zm11.5,2.3-5-2.8a23.47,23.47,0,0,0,2.9,6.7,15.48,15.48,0,0,1,2.2.1,9,9,0,0,1-4.3,1.8c0-.7.9-.7.9-1.5.4-2.3-2.7-6.2-3.4-8-.7-.3-1.4.6-1.8,0-.1-.8,1.9-1,2.6-1.6,3,1.4,5.6,3.4,8.5,4.9a28.85,28.85,0,0,0-2.6-6.3c-1-.3-1.5.4-2,0,.8-1.3,2.8-1.3,3.9-2.2,1,.8-.8.8-.8,1.8a72.23,72.23,0,0,0,3.7,9.1C189.6,198,188.1,196.2,186.6,195.4Zm8.4.1c0-.9,1.1-.6,1.1-1.4a74.9,74.9,0,0,0-3.8-8.1c-.7-.3-1.4.6-1.8,0a7.56,7.56,0,0,1,4.5-2.1c-.3.6-1,.7-1.2,1.3,1.2,2.7,2.6,5.3,3.7,8,.7.6,1.5-.3,1.9.3A10.37,10.37,0,0,1,195,195.5Zm11.6-7.1c-2.8-1.8-6-3.6-8.8-5.6-.9-.1-1.4.7-1.9.3.7-1.4,5.1-4.5,2.8-1.8a40.12,40.12,0,0,0,6.5,4.2c0-2.4-1.2-5.2-2-7.4-.7.1-1.1.6-1.8.7,0-1.3,2.2-2,2.9-3.1.8.7-.1.8-.1,1.7C204.1,180.8,207.4,185.1,206.6,188.4Zm6.8-8.3c-1.9-2.3-4.3-3.9-6.5-5.8-.8-.1-1.1,1.1-1.8.6,1.5-2.5,3.7-4.4,5.1-6.7.7.4,1.9,1.3,1.9,1.7-.1,1-1.4-.1-2.3.3-.1.3-2.3,1.8-2.3,2.4.1,1.1,2.4,1.7,3.1,2.8,1.5-.4,1.6-2.5.8-3.6,1.2,0,2.3,2,3.7,2.7-1.1.3-3.3-.4-3.7,1.3.9,1,1.9,2.9,3.3,2.8,2,0,3.3-3.5,1.8-5.8.9-.1,1.5,1.7,2.6,2-2,2-3.8,5.5-6.1,6.8C213,180.9,213.8,180.5,213.4,180.1Z" transform="translate(-57.08 -25.3)" fill="#f4efea"/><path d="M101.7,74.3V39a67.57,67.57,0,0,0,34.8,9.1,94.16,94.16,0,0,0,12.17-.74,95.93,95.93,0,0,1-12.16.74A68.08,68.08,0,0,1,101.68,39V74.36c1.71,26.09-1.9,56.12,2.71,78.7a66.14,66.14,0,0,0,7.27,19.26A66.73,66.73,0,0,1,104.4,153C99.8,130.4,103.4,100.4,101.7,74.3Z" transform="translate(-57.08 -25.3)" fill="#f4efea"/><path d="M129.45,194.32a76.41,76.41,0,0,0,7.6,5.74c1,.69,2.13,1.36,3.22,2-1.11-.66-2.2-1.34-3.27-2.06A76.36,76.36,0,0,1,129.45,194.32Z" transform="translate(-57.08 -25.3)" fill="#f4efea"/><path d="M240,101.9c.6,20.7,1.1,42.1-4.1,58.2a74.51,74.51,0,0,1-10.41,20.48A74.74,74.74,0,0,0,236,160.09c5.15-16.14,4.75-37.45,4.07-58.22-.11-3.36-.15-6.73-.16-10.09C239.87,95.16,239.9,98.53,240,101.9Z" transform="translate(-57.08 -25.3)" fill="#f4efea"/><path d="M240.3,39.5q.15,3.86.19,7.72c0-2.6-.09-5.2-.19-7.78-.8-.14-1.85.79-3.16,1.48C238.47,40.23,239.43,39.31,240.3,39.5Z" transform="translate(-57.08 -25.3)" fill="#f4efea"/><path d="M221.56,46.47a68,68,0,0,1-15.14,1.63,95.82,95.82,0,0,1-16.93-1.4,95.67,95.67,0,0,0,16.91,1.4A65.93,65.93,0,0,0,221.56,46.47Z" transform="translate(-57.08 -25.3)" fill="#f4efea"/><path d="M171.06,218.72c2.37-1.55,4.8-3,7.25-4.33-2.46,1.35-4.9,2.77-7.29,4.3Z" transform="translate(-57.08 -25.3)" fill="#f4efea"/><path d="M237,41c-.14.08-.29.14-.43.21L237,41Z" transform="translate(-57.08 -25.3)" fill="#f4efea"/><path d="M205.5,65.9v-.1c-.6-.4-1.3.5-1.2,1.5A1.22,1.22,0,0,0,205.5,65.9Z" transform="translate(-57.08 -25.3)" fill="#f4efea"/><path d="M214.8,161.5a4.52,4.52,0,0,0-1.4,2.4,31.68,31.68,0,0,0,4.1,2.1C218.7,164,217.8,161,214.8,161.5Z" transform="translate(-57.08 -25.3)" fill="#f4efea"/><path d="M111.71,172.42l0-.1,0,.08a76.76,76.76,0,0,0,17.75,21.92A77.7,77.7,0,0,1,111.71,172.42Z" transform="translate(-57.08 -25.3)" fill="#f4efea"/><path d="M189.49,46.7c-7.13-1.29-13.47-3.51-18.29-6.9-6.19,4.06-13.93,6.46-22.53,7.56,8.61-1.1,16.37-3.49,22.52-7.54C176,43.2,182.35,45.42,189.49,46.7Z" transform="translate(-57.08 -25.3)" fill="#f4efea"/><path d="M239.87,91.78c0-14.84.8-29.79.62-44.56C240.67,62,239.86,76.92,239.87,91.78Z" transform="translate(-57.08 -25.3)" fill="#f4efea"/><path d="M237.14,40.92A.6.6,0,0,1,237,41h0Z" transform="translate(-57.08 -25.3)" fill="#f4efea"/><path d="M225.49,180.58a74.74,74.74,0,0,1-15.28,15.69h0c-9.52,7.35-21,12-31.9,18.12,11-6,22.41-10.74,31.89-18.09A73.75,73.75,0,0,0,225.49,180.58Z" transform="translate(-57.08 -25.3)" fill="#f4efea"/><path d="M171,218.7h0c-10-6.94-21-10.88-30.75-16.63C150,207.85,161,211.79,171,218.7Z" transform="translate(-57.08 -25.3)" fill="#f4efea"/><path d="M221.56,46.47a67.38,67.38,0,0,0,15-5.28A68.91,68.91,0,0,1,221.56,46.47Z" transform="translate(-57.08 -25.3)" fill="#f4efea"/><path d="M245.6,164.82c5.94-18.6,5.31-43.33,4.69-67.09-.78-23.93,1.25-48.18.31-71.95-.94-.16-2.19,1-3.75,1.78-9.21,4.85-21.86,8.25-35.29,8.25-15.93,0-30.92-2.75-40.6-9.54-10.31,6.79-24.52,9.54-40,9.54-16.09,0-29.84-4.37-40.14-10.51V66c2,30.07-2.19,64.67,3.12,90.69A76.24,76.24,0,0,0,102.41,179a89.51,89.51,0,0,0,29.2,31.86c12,7.91,26.39,12.6,39.19,21.5,15-9.7,31.7-15.52,45.13-25.87A86.3,86.3,0,0,0,245.6,164.82Zm-74.54,53.9,0,0h0c-10-6.91-21-10.85-30.73-16.64-1.09-.64-2.17-1.31-3.22-2A77.88,77.88,0,0,1,111.7,172.4l0-.08a66.14,66.14,0,0,1-7.27-19.26c-4.61-22.58-1-52.61-2.71-78.7V39a68.08,68.08,0,0,0,34.83,9.12,95.93,95.93,0,0,0,12.16-.74c8.6-1.1,16.34-3.5,22.53-7.56,4.82,3.39,11.16,5.61,18.29,6.9a95.82,95.82,0,0,0,16.93,1.4,68,68,0,0,0,15.14-1.63,68.91,68.91,0,0,0,15-5.28c.14-.07.29-.13.43-.21a.6.6,0,0,0,.11-.06c1.31-.69,2.36-1.62,3.16-1.48.1,2.58.16,5.18.19,7.78.18,14.77-.6,29.72-.62,44.56,0,3.36,0,6.73.16,10.09.68,20.77,1.08,42.08-4.07,58.22a74.74,74.74,0,0,1-10.47,20.49A73.75,73.75,0,0,1,210.2,196.3c-9.48,7.35-20.89,12-31.89,18.09C175.86,215.75,173.43,217.17,171.06,218.72Z" transform="translate(-57.08 -25.3)" fill="#f4efea"/></svg>